<svg width="1200" height="630" viewBox="0 0 1200 630" xmlns="http://www.w3.org/2000/svg">
  <defs>
    <radialGradient id="bg" cx="30%" cy="40%" r="80%">
      <stop offset="0%" stop-color="#1a1008"/>
      <stop offset="60%" stop-color="#0d0804"/>
      <stop offset="100%" stop-color="#060402"/>
    </radialGradient>
    <radialGradient id="glow" cx="50%" cy="50%" r="50%">
      <stop offset="0%" stop-color="#c9a97a" stop-opacity="0.12"/>
      <stop offset="100%" stop-color="#c9a97a" stop-opacity="0"/>
    </radialGradient>
    <filter id="blur">
      <feGaussianBlur stdDeviation="40"/>
    </filter>
  </defs>

  <!-- Ìo -->
  <rect width="1200" height="630" fill="url(#bg)"/>

  <!-- IU -->
  <ellipse cx="380" cy="280" rx="400" ry="350" fill="url(#glow)" filter="url(#blur)"/>

  <!-- Åp¿a&	 -->
  <path d="M 0 420 Q 200 380 400 410 Q 600 440 800 390 Q 1000 340 1200 370" stroke="#c9a97a" stroke-width="0.8" stroke-opacity="0.2" fill="none"/>
  <path d="M 0 460 Q 250 420 450 450 Q 650 480 850 430 Q 1050 380 1200 410" stroke="#c9a97a" stroke-width="0.5" stroke-opacity="0.12" fill="none"/>
  <path d="M 0 500 Q 300 465 500 490 Q 700 515 900 470 Q 1100 425 1200 450" stroke="#c9a97a" stroke-width="0.3" stroke-opacity="0.08" fill="none"/>

  <!-- ;˜ -->
  <text x="120" y="200" font-family="'PingFang SC', 'Hiragino Sans GB', sans-serif" font-size="72" font-weight="300" fill="#f0e8dc" letter-spacing="4">TiedStory</text>

  <!-- o˜	 -->
  <text x="122" y="268" font-family="'PingFang SC', 'Hiragino Sans GB', sans-serif" font-size="32" font-weight="300" fill="#c9a97a" letter-spacing="8">  </text>

  <!-- ”¿ -->
  <line x1="120" y1="300" x2="540" y2="300" stroke="#c9a97a" stroke-width="1" stroke-opacity="0.3"/>

  <!-- Ïð‡W -->
  <text x="120" y="350" font-family="'PingFang SC', 'Hiragino Sans GB', sans-serif" font-size="22" font-weight="300" fill="#e8ddd0" fill-opacity="0.65" letter-spacing="1">ôú`„¾Ç	º(,</text>

  <!-- ~ -->
  <rect x="120" y="390" width="120" height="32" rx="16" fill="#c9a97a" fill-opacity="0.12" stroke="#c9a97a" stroke-width="1" stroke-opacity="0.3"/>
  <text x="180" y="411" font-family="'PingFang SC', sans-serif" font-size="13" fill="#c9a97a" text-anchor="middle" letter-spacing="2">Œh?</text>

  <rect x="256" y="390" width="120" height="32" rx="16" fill="#c9a97a" fill-opacity="0.12" stroke="#c9a97a" stroke-width="1" stroke-opacity="0.3"/>
  <text x="316" y="411" font-family="'PingFang SC', sans-serif" font-size="13" fill="#c9a97a" text-anchor="middle" letter-spacing="2">Lºj4</text>

  <!-- ó§Åp -->
  <circle cx="950" cy="280" r="180" fill="none" stroke="#c9a97a" stroke-width="0.6" stroke-opacity="0.08"/>
  <circle cx="950" cy="280" r="130" fill="none" stroke="#c9a97a" stroke-width="0.4" stroke-opacity="0.06"/>

  <!-- 'WÅp -->
  <text x="950" y="310" font-family="'PingFang SC', 'Hiragino Sans GB', sans-serif" font-size="120" font-weight="700" fill="#c9a97a" fill-opacity="0.06" text-anchor="middle" letter-spacing="0"></text>

  <!-- ß -->
  <text x="120" y="570" font-family="'PingFang SC', 'Hiragino Sans GB', 'Courier New', monospace" font-size="16" fill="#e8ddd0" fill-opacity="0.3" letter-spacing="2">tiedstory.com</text>
</svg>
